<mxfile host="65bd71144e">
    <diagram id="01Pa1AFZBaFH02UaJwv6" name="ページ1">
        <mxGraphModel dx="1352" dy="668" grid="1" gridSize="10" guides="1" tooltips="1" connect="1" arrows="1" fold="1" page="1" pageScale="1" pageWidth="1169" pageHeight="827" math="0" shadow="0">
            <root>
                <mxCell id="0"/>
                <mxCell id="1" parent="0"/>
                <mxCell id="2" value="&lt;font&gt;出船開始&lt;/font&gt;" style="rounded=1;whiteSpace=wrap;html=1;fillColor=#bac8d3;strokeColor=#23445d;fontColor=#1A1A1A;" parent="1" vertex="1">
                    <mxGeometry x="760" y="120" width="120" height="60" as="geometry"/>
                </mxCell>
                <mxCell id="5" value="15分ごとに&lt;br&gt;未帰投のユーザー&lt;br&gt;を取得" style="rounded=0;whiteSpace=wrap;html=1;fillColor=#bac8d3;strokeColor=#23445d;fontColor=#1A1A1A;" parent="1" vertex="1">
                    <mxGeometry x="760" y="240" width="120" height="60" as="geometry"/>
                </mxCell>
                <mxCell id="6" value="" style="endArrow=classic;html=1;fontColor=#333333;strokeColor=#FFFFFF;" parent="1" source="2" edge="1">
                    <mxGeometry width="50" height="50" relative="1" as="geometry">
                        <mxPoint x="860" y="350" as="sourcePoint"/>
                        <mxPoint x="820" y="240" as="targetPoint"/>
                    </mxGeometry>
                </mxCell>
                <mxCell id="15" value="&lt;font&gt;出船終了&lt;/font&gt;" style="rounded=1;whiteSpace=wrap;html=1;fillColor=#bac8d3;strokeColor=#23445d;fontColor=#1A1A1A;" parent="1" vertex="1">
                    <mxGeometry x="760" y="498.5" width="120" height="60" as="geometry"/>
                </mxCell>
                <mxCell id="31" value="帰投報告が？" style="rhombus;whiteSpace=wrap;html=1;fontSize=12;fillColor=#bac8d3;strokeColor=#23445d;fontColor=#1A1A1A;" parent="1" vertex="1">
                    <mxGeometry x="760" y="360" width="120" height="80" as="geometry"/>
                </mxCell>
                <mxCell id="34" value="ある" style="text;html=1;strokeColor=none;fillColor=none;align=center;verticalAlign=middle;whiteSpace=wrap;rounded=0;fontSize=12;fontColor=#FFFFFF;" parent="1" vertex="1">
                    <mxGeometry x="810" y="440" width="60" height="30" as="geometry"/>
                </mxCell>
                <mxCell id="35" value="ない" style="text;html=1;strokeColor=none;fillColor=none;align=center;verticalAlign=middle;whiteSpace=wrap;rounded=0;fontSize=12;fontColor=#FFFFFF;" parent="1" vertex="1">
                    <mxGeometry x="710" y="399" width="60" height="30" as="geometry"/>
                </mxCell>
                <mxCell id="36" value="" style="endArrow=classic;html=1;fontColor=#333333;exitX=0.5;exitY=1;exitDx=0;exitDy=0;strokeColor=#FFFFFF;entryX=0.5;entryY=0;entryDx=0;entryDy=0;" edge="1" parent="1" target="31">
                    <mxGeometry width="50" height="50" relative="1" as="geometry">
                        <mxPoint x="819.69" y="300" as="sourcePoint"/>
                        <mxPoint x="819.69" y="360" as="targetPoint"/>
                    </mxGeometry>
                </mxCell>
                <mxCell id="37" value="" style="endArrow=classic;html=1;fontColor=#333333;strokeColor=#FFFFFF;" edge="1" parent="1" source="31" target="15">
                    <mxGeometry width="50" height="50" relative="1" as="geometry">
                        <mxPoint x="819.6900000000003" y="440" as="sourcePoint"/>
                        <mxPoint x="819.6900000000003" y="500" as="targetPoint"/>
                    </mxGeometry>
                </mxCell>
                <mxCell id="39" value="帰投報告の&lt;br&gt;催促をメールを送信" style="rounded=0;whiteSpace=wrap;html=1;fillColor=#bac8d3;strokeColor=#23445d;fontColor=#1A1A1A;" vertex="1" parent="1">
                    <mxGeometry x="560" y="240" width="120" height="60" as="geometry"/>
                </mxCell>
                <mxCell id="40" value="15分後&lt;br&gt;帰投報告が？" style="rhombus;whiteSpace=wrap;html=1;fontSize=12;fillColor=#bac8d3;strokeColor=#23445d;fontColor=#1A1A1A;" vertex="1" parent="1">
                    <mxGeometry x="560" y="334" width="120" height="80" as="geometry"/>
                </mxCell>
                <mxCell id="44" value="" style="endArrow=classic;html=1;fontColor=#333333;exitX=0;exitY=0.5;exitDx=0;exitDy=0;strokeColor=#FFFFFF;entryX=1.014;entryY=0.431;entryDx=0;entryDy=0;entryPerimeter=0;" edge="1" parent="1" source="31" target="39">
                    <mxGeometry width="50" height="50" relative="1" as="geometry">
                        <mxPoint x="829.6899999999998" y="310" as="sourcePoint"/>
                        <mxPoint x="830" y="370" as="targetPoint"/>
                        <Array as="points">
                            <mxPoint x="720" y="400"/>
                            <mxPoint x="720" y="266"/>
                        </Array>
                    </mxGeometry>
                </mxCell>
                <mxCell id="45" value="" style="endArrow=classic;html=1;fontColor=#333333;exitX=0.5;exitY=1;exitDx=0;exitDy=0;strokeColor=#FFFFFF;entryX=0.5;entryY=0;entryDx=0;entryDy=0;" edge="1" parent="1" source="39" target="40">
                    <mxGeometry width="50" height="50" relative="1" as="geometry">
                        <mxPoint x="529.9999999999998" y="330" as="sourcePoint"/>
                        <mxPoint x="530.31" y="390" as="targetPoint"/>
                    </mxGeometry>
                </mxCell>
                <mxCell id="46" value="ない" style="text;html=1;strokeColor=none;fillColor=none;align=center;verticalAlign=middle;whiteSpace=wrap;rounded=0;fontSize=12;fontColor=#FFFFFF;" vertex="1" parent="1">
                    <mxGeometry x="520" y="339" width="60" height="30" as="geometry"/>
                </mxCell>
                <mxCell id="47" value="ある" style="text;html=1;strokeColor=none;fillColor=none;align=center;verticalAlign=middle;whiteSpace=wrap;rounded=0;fontSize=12;fontColor=#FFFFFF;" vertex="1" parent="1">
                    <mxGeometry x="610" y="410" width="60" height="30" as="geometry"/>
                </mxCell>
                <mxCell id="48" value="" style="endArrow=classic;html=1;fontColor=#333333;exitX=0.5;exitY=1;exitDx=0;exitDy=0;strokeColor=#FFFFFF;" edge="1" parent="1" source="40">
                    <mxGeometry width="50" height="50" relative="1" as="geometry">
                        <mxPoint x="829.6899999999998" y="310" as="sourcePoint"/>
                        <mxPoint x="760" y="529" as="targetPoint"/>
                        <Array as="points">
                            <mxPoint x="620" y="530"/>
                        </Array>
                    </mxGeometry>
                </mxCell>
                <mxCell id="52" value="緊急連絡先へ&lt;br&gt;メールを送信" style="rounded=0;whiteSpace=wrap;html=1;fillColor=#bac8d3;strokeColor=#23445d;fontColor=#1A1A1A;" vertex="1" parent="1">
                    <mxGeometry x="280" y="160" width="120" height="60" as="geometry"/>
                </mxCell>
                <mxCell id="53" value="3回送信したか？" style="rhombus;whiteSpace=wrap;html=1;fontSize=12;fillColor=#bac8d3;strokeColor=#23445d;fontColor=#1A1A1A;" vertex="1" parent="1">
                    <mxGeometry x="280" y="418.5" width="120" height="80" as="geometry"/>
                </mxCell>
                <mxCell id="54" value="はい" style="text;html=1;strokeColor=none;fillColor=none;align=center;verticalAlign=middle;whiteSpace=wrap;rounded=0;fontSize=12;fontColor=#FFFFFF;" vertex="1" parent="1">
                    <mxGeometry x="270" y="498.5" width="60" height="30" as="geometry"/>
                </mxCell>
                <mxCell id="55" value="いいえ" style="text;html=1;strokeColor=none;fillColor=none;align=center;verticalAlign=middle;whiteSpace=wrap;rounded=0;fontSize=12;fontColor=#FFFFFF;" vertex="1" parent="1">
                    <mxGeometry x="230" y="429" width="60" height="30" as="geometry"/>
                </mxCell>
                <mxCell id="56" value="" style="endArrow=classic;html=1;fontColor=#333333;exitX=0;exitY=0.5;exitDx=0;exitDy=0;strokeColor=#FFFFFF;entryX=1;entryY=0.5;entryDx=0;entryDy=0;" edge="1" parent="1" target="52">
                    <mxGeometry width="50" height="50" relative="1" as="geometry">
                        <mxPoint x="560" y="374.14" as="sourcePoint"/>
                        <mxPoint x="481.68000000000006" y="240" as="targetPoint"/>
                        <Array as="points">
                            <mxPoint x="530" y="374"/>
                            <mxPoint x="530" y="190"/>
                        </Array>
                    </mxGeometry>
                </mxCell>
                <mxCell id="57" value="5分後&lt;br&gt;帰投報告が？" style="rhombus;whiteSpace=wrap;html=1;fontSize=12;fillColor=#bac8d3;strokeColor=#23445d;fontColor=#1A1A1A;" vertex="1" parent="1">
                    <mxGeometry x="280" y="280" width="120" height="80" as="geometry"/>
                </mxCell>
                <mxCell id="58" value="" style="endArrow=classic;html=1;fontColor=#333333;exitX=0.5;exitY=1;exitDx=0;exitDy=0;strokeColor=#FFFFFF;entryX=0.5;entryY=0;entryDx=0;entryDy=0;" edge="1" parent="1">
                    <mxGeometry width="50" height="50" relative="1" as="geometry">
                        <mxPoint x="339.62000000000006" y="220" as="sourcePoint"/>
                        <mxPoint x="339.93000000000023" y="280" as="targetPoint"/>
                    </mxGeometry>
                </mxCell>
                <mxCell id="60" value="ない" style="text;html=1;strokeColor=none;fillColor=none;align=center;verticalAlign=middle;whiteSpace=wrap;rounded=0;fontSize=12;fontColor=#FFFFFF;" vertex="1" parent="1">
                    <mxGeometry x="280" y="369" width="60" height="30" as="geometry"/>
                </mxCell>
                <mxCell id="61" value="ある" style="text;html=1;strokeColor=none;fillColor=none;align=center;verticalAlign=middle;whiteSpace=wrap;rounded=0;fontSize=12;fontColor=#FFFFFF;" vertex="1" parent="1">
                    <mxGeometry x="390" y="320" width="60" height="30" as="geometry"/>
                </mxCell>
                <mxCell id="63" value="" style="endArrow=classic;html=1;fontColor=#333333;strokeColor=#FFFFFF;entryX=0;entryY=0.5;entryDx=0;entryDy=0;" edge="1" parent="1" target="52">
                    <mxGeometry width="50" height="50" relative="1" as="geometry">
                        <mxPoint x="280" y="460" as="sourcePoint"/>
                        <mxPoint x="420" y="595" as="targetPoint"/>
                        <Array as="points">
                            <mxPoint x="220" y="460"/>
                            <mxPoint x="220" y="190"/>
                        </Array>
                    </mxGeometry>
                </mxCell>
                <mxCell id="64" value="" style="endArrow=classic;html=1;fontColor=#333333;exitX=0.5;exitY=1;exitDx=0;exitDy=0;strokeColor=#FFFFFF;entryX=0.5;entryY=0;entryDx=0;entryDy=0;" edge="1" parent="1">
                    <mxGeometry width="50" height="50" relative="1" as="geometry">
                        <mxPoint x="339.2900000000001" y="360" as="sourcePoint"/>
                        <mxPoint x="339.60000000000025" y="420" as="targetPoint"/>
                    </mxGeometry>
                </mxCell>
                <mxCell id="65" value="" style="endArrow=none;html=1;exitX=0.5;exitY=1;exitDx=0;exitDy=0;strokeColor=#FFFFFF;" edge="1" parent="1" source="53">
                    <mxGeometry width="50" height="50" relative="1" as="geometry">
                        <mxPoint x="670" y="430" as="sourcePoint"/>
                        <mxPoint x="630" y="530" as="targetPoint"/>
                        <Array as="points">
                            <mxPoint x="340" y="530"/>
                        </Array>
                    </mxGeometry>
                </mxCell>
                <mxCell id="67" value="" style="endArrow=classic;html=1;fontColor=#333333;strokeColor=#FFFFFF;exitX=1;exitY=0.5;exitDx=0;exitDy=0;entryX=0.5;entryY=0;entryDx=0;entryDy=0;" edge="1" parent="1" source="57" target="68">
                    <mxGeometry width="50" height="50" relative="1" as="geometry">
                        <mxPoint x="430.0000000000002" y="324" as="sourcePoint"/>
                        <mxPoint x="430" y="369.0000000000001" as="targetPoint"/>
                        <Array as="points">
                            <mxPoint x="460" y="320"/>
                        </Array>
                    </mxGeometry>
                </mxCell>
                <mxCell id="68" value="緊急連絡先へ&lt;br&gt;無事報告を送信" style="rounded=0;whiteSpace=wrap;html=1;fillColor=#bac8d3;strokeColor=#23445d;fontColor=#1A1A1A;" vertex="1" parent="1">
                    <mxGeometry x="400" y="369" width="120" height="60" as="geometry"/>
                </mxCell>
                <mxCell id="69" value="" style="endArrow=none;html=1;entryX=0.5;entryY=1;entryDx=0;entryDy=0;strokeColor=#FFFFFF;" edge="1" parent="1" target="68">
                    <mxGeometry width="50" height="50" relative="1" as="geometry">
                        <mxPoint x="460" y="528.5" as="sourcePoint"/>
                        <mxPoint x="510" y="478.5" as="targetPoint"/>
                    </mxGeometry>
                </mxCell>
            </root>
        </mxGraphModel>
    </diagram>
</mxfile>